P3
64 64
255
4 4 4 4 4 4 4 4 4 4 4 4 4 4 4 4 4 4 4 4 4 4 4 4 4 4 4 4 4 4 4 4 4 4 4 4 4 4 4 
4 4 4 4 4 4 4 4 4 4 4 4 4 4 4 4 4 4 4 4 4 4 4 4 4 4 4 4 4 4 4 4 4 4 4 4 4 4 4 
4 4 4 4 4 4 4 4 4 4 4 4 4 4 4 4 4 4 4 4 4 4 4 4 4 4 4 4 4 4 4 4 4 4 4 4 4 4 4 
4 4 4 4 4 4 4 4 4 4 4 4 4 4 4 4 4 4 4 4 4 4 4 4 4 4 4 4 4 4 4 4 4 4 4 4 4 4 4 
4 4 4 4 4 4 4 4 4 4 4 4 4 4 4 4 4 4 4 4 4 4 4 4 4 4 4 4 4 4 4 4 4 4 4 4 4 4 4 
4 4 4 4 4 4 4 4 4 4 4 4 4 4 4 4 4 4 4 4 4 4 4 4 4 4 4 4 4 4 4 4 4 4 4 4 4 4 4 
4 4 4 4 4 4 4 4 4 4 4 4 4 4 4 4 4 4 4 4 4 4 4 4 4 4 4 4 4 4 4 4 4 4 4 4 4 4 4 
4 4 4 4 4 4 4 4 4 4 4 4 4 4 4 4 4 4 4 4 4 4 4 4 4 4 4 4 4 4 4 4 4 4 4 4 4 4 4 
4 4 4 4 4 4 4 4 4 4 4 4 4 4 4 4 4 4 4 4 4 4 4 4 4 4 4 4 4 4 4 4 4 4 4 4 4 4 4 
4 4 4 4 4 4 4 4 4 4 4 4 4 4 4 4 4 4 4 4 4 4 4 4 4 4 4 4 4 4 4 4 4 4 4 4 4 4 4 
4 4 4 4 4 4 4 4 4 4 4 4 4 4 4 4 4 4 4 4 4 4 4 4 4 4 4 4 4 4 4 4 4 4 4 4 4 4 4 
4 4 4 4 4 4 4 4 4 4 4 4 4 4 4 4 4 4 4 4 4 4 4 4 4 4 4 4 4 4 4 4 4 4 4 4 4 4 4 
4 4 4 4 4 4 4 4 4 4 4 4 4 4 4 4 4 4 4 4 4 4 4 4 4 4 4 4 4 4 4 4 4 4 4 4 4 4 4 
4 4 4 4 4 4 4 4 4 4 4 4 4 4 4 4 4 4 4 4 4 4 4 4 4 4 4 4 4 4 4 4 4 4 4 4 4 4 4 
4 4 4 4 4 4 4 4 4 4 4 4 4 4 4 4 4 4 4 4 4 4 4 4 4 4 4 4 4 4 4 4 4 4 4 4 4 4 4 
4 4 4 4 4 4 4 4 4 4 4 4 4 4 4 4 4 4 4 4 4 4 4 4 4 4 4 4 4 4 4 4 4 4 4 4 4 4 4 
4 4 4 4 4 4 4 4 4 4 4 4 4 4 4 4 4 4 4 4 4 4 4 4 4 4 4 4 4 4 4 4 4 4 4 4 4 4 4 
4 4 4 4 4 4 4 4 4 4 4 4 4 4 4 4 4 4 4 4 4 4 4 4 4 4 4 4 4 4 4 4 4 4 4 4 4 4 4 
4 4 4 4 4 4 4 4 4 4 4 4 4 4 4 4 4 4 4 4 4 4 4 4 4 4 4 4 4 4 4 4 4 4 4 4 4 4 4 
4 4 4 4 4 4 4 4 4 4 4 4 4 4 4 4 4 4 4 4 4 4 4 4 4 4 4 4 4 4 4 4 4 4 4 4 4 4 4 
4 4 4 4 4 4 4 4 4 4 4 4 4 4 4 4 4 4 4 4 4 4 4 4 4 4 4 4 4 4 4 4 4 4 4 4 4 4 4 
4 4 4 4 4 4 4 4 4 4 4 4 4 4 4 4 4 4 4 4 4 4 4 4 4 4 4 4 4 4 4 4 4 4 4 4 4 4 4 
4 4 4 4 4 4 4 4 4 4 4 4 4 4 4 4 4 4 4 4 4 4 4 4 4 4 4 4 4 4 4 4 4 4 4 4 4 4 4 
4 4 4 4 4 4 4 4 4 4 4 4 4 4 4 4 4 4 4 4 4 4 4 4 4 4 4 4 4 4 4 4 4 4 4 4 4 4 4 
4 4 4 4 4 4 4 4 4 4 4 4 4 4 4 4 4 4 4 4 4 4 4 4 4 4 4 4 4 4 4 4 4 4 4 4 4 4 4 
4 4 4 4 4 4 4 4 4 4 4 4 4 4 4 4 4 4 4 4 4 4 4 4 4 4 4 4 4 4 4 4 4 4 4 4 4 4 4 
4 4 4 4 4 4 4 4 4 4 4 4 4 4 4 4 4 4 4 4 4 4 4 4 4 4 4 4 4 4 4 4 4 4 4 4 4 4 4 
4 4 4 4 4 4 4 4 4 4 4 4 4 4 4 4 4 4 4 4 4 4 4 4 4 4 4 4 4 4 4 4 4 4 4 4 4 4 4 
4 4 4 4 4 4 4 4 4 4 4 4 4 4 4 4 4 4 4 4 4 4 4 4 4 4 4 4 4 4 4 4 4 4 4 4 4 4 4 
4 4 4 4 4 4 4 4 4 4 4 4 4 4 4 4 4 4 4 4 4 4 4 4 4 4 4 4 4 4 4 4 4 4 4 4 4 4 4 
4 4 4 4 4 4 4 4 4 4 4 4 4 4 4 4 4 4 4 4 4 4 4 4 4 4 4 4 4 4 4 4 4 4 4 4 4 4 4 
4 4 4 4 4 4 4 4 4 4 4 4 4 4 4 4 4 4 4 4 4 4 4 4 4 4 4 4 4 4 4 4 4 4 4 4 4 4 4 
4 4 4 4 4 4 4 4 4 4 4 4 4 4 4 4 4 4 4 4 4 4 4 4 4 4 4 4 4 4 4 4 4 4 4 4 4 4 4 
4 4 4 4 4 4 4 4 4 4 4 4 4 4 4 4 4 4 4 4 4 4 4 4 4 4 4 4 4 4 4 4 4 4 4 4 4 4 4 
4 4 4 4 4 4 4 4 4 4 4 4 4 4 4 4 4 4 4 4 4 4 4 4 4 4 4 4 4 4 4 4 4 4 4 4 4 4 4 
4 4 4 4 4 4 4 4 4 4 4 4 4 4 4 4 4 4 4 4 4 4 4 4 4 4 4 4 4 4 4 4 4 4 4 4 4 4 4 
4 4 4 4 4 4 4 4 4 4 4 4 4 4 4 4 4 4 4 4 4 4 4 4 4 4 4 4 4 4 4 4 4 4 4 4 4 4 4 
4 4 4 4 4 4 4 4 4 4 4 4 4 4 4 4 4 4 4 4 4 4 4 4 4 4 4 4 4 4 4 4 4 4 4 4 4 4 4 
4 4 4 4 4 4 4 4 4 4 4 4 4 4 4 4 4 4 4 4 4 4 4 4 4 4 4 4 4 4 4 4 4 4 4 4 4 4 4 
4 4 4 4 4 4 4 4 4 4 4 4 4 4 4 4 4 4 4 4 4 4 4 4 4 4 4 4 4 4 4 4 4 4 4 4 4 4 4 
3 3 3 3 3 3 3 3 3 3 3 3 3 3 3 3 3 3 3 3 3 3 3 3 4 4 4 4 4 4 4 4 4 4 4 4 4 4 4 
4 4 4 4 4 4 4 4 4 4 4 4 4 4 4 4 4 4 4 4 4 4 4 4 4 4 4 4 4 4 4 4 4 4 4 4 4 4 4 
4 4 4 4 4 4 4 4 4 4 4 4 4 4 4 4 4 4 4 4 4 4 4 4 4 4 4 4 4 4 4 4 4 4 4 4 4 4 4 
4 4 4 4 4 4 4 4 4 4 4 4 4 4 4 4 4 4 4 4 4 4 4 4 4 4 4 4 4 4 4 4 4 4 4 4 4 4 4 
4 4 4 4 4 4 4 4 4 4 4 4 4 4 4 4 4 4 4 4 4 4 4 4 4 4 4 4 4 4 4 4 4 4 4 4 3 3 3 
3 3 3 3 3 3 3 3 3 3 3 3 3 3 3 3 3 3 3 3 3 7 7 7 7 7 7 7 7 7 7 7 7 7 7 7 7 7 7 
7 7 7 7 7 7 4 4 4 4 4 4 4 4 4 4 4 4 4 4 4 4 4 4 4 4 4 4 4 4 4 4 4 4 4 4 4 4 4 
4 4 4 4 4 4 4 4 4 4 4 4 4 4 4 4 4 4 4 4 4 4 4 4 4 4 4 4 4 4 4 4 4 4 4 4 4 4 4 
4 4 4 4 4 4 4 4 4 4 4 4 4 4 4 4 4 4 4 4 4 4 4 4 4 4 4 4 4 4 4 4 4 4 4 4 4 4 4 
4 4 4 4 4 4 4 4 4 4 4 4 4 4 4 4 4 4 4 4 4 4 4 4 4 4 4 4 4 4 4 4 4 4 4 4 4 4 4 
4 4 4 4 4 4 4 4 4 4 4 4 4 4 4 4 4 4 0 0 0 0 0 0 0 0 0 0 0 0 0 0 0 0 0 0 0 0 0 
0 0 0 4 4 4 4 4 4 4 4 4 4 4 4 4 4 4 4 4 4 4 4 4 4 4 4 4 4 4 4 4 4 4 4 4 4 4 4 
4 4 4 4 4 4 4 4 4 4 4 4 4 4 4 4 4 4 4 4 4 4 4 4 4 4 4 4 4 4 4 4 4 4 4 4 4 4 4 
4 4 4 4 4 4 4 4 4 4 4 4 4 4 4 4 4 4 4 4 4 4 4 4 4 4 4 4 4 4 4 4 4 4 4 4 4 4 4 
4 4 4 4 4 4 4 4 4 4 4 4 4 4 4 4 4 4 4 4 4 4 4 4 4 4 4 4 4 4 4 4 4 4 4 4 4 4 4 
4 4 4 4 4 4 4 4 4 4 4 4 4 4 4 7 7 7 7 7 7 7 7 7 7 7 7 7 7 7 7 7 7 7 7 7 7 7 7 
4 4 4 4 4 4 4 4 4 4 4 4 4 4 4 4 4 4 4 4 4 4 4 4 4 4 4 4 4 4 4 4 4 4 4 4 4 4 4 
4 4 4 4 4 4 4 4 4 4 4 4 4 4 4 4 4 4 4 4 4 4 4 4 4 4 4 4 4 4 4 4 4 4 4 4 4 4 4 
4 4 4 4 4 4 4 4 4 4 4 4 4 4 4 4 4 4 4 4 4 4 4 4 4 4 4 4 4 4 4 4 4 4 4 4 4 4 4 
4 4 4 4 4 4 4 4 4 4 4 4 4 4 4 4 4 4 4 4 4 4 4 4 4 4 4 4 4 4 4 4 4 4 4 4 4 4 4 
4 4 4 4 4 4 4 4 4 4 4 4 5 5 5 5 5 5 5 5 5 5 5 5 5 5 5 5 5 5 5 5 5 5 5 5 4 4 4 
4 4 4 4 4 4 4 4 4 4 4 4 4 4 4 4 4 4 4 4 4 4 4 4 4 4 4 4 4 4 4 4 4 4 4 4 4 4 4 
4 4 4 4 4 4 4 4 4 4 4 4 4 4 4 4 4 4 4 4 4 4 4 4 4 4 4 4 4 4 4 4 4 4 4 4 4 4 4 
4 4 4 4 4 4 4 4 4 4 4 4 4 4 4 4 4 4 4 4 4 4 4 4 4 4 4 4 4 4 4 4 4 4 4 4 4 4 4 
4 4 4 4 4 4 4 4 4 4 4 4 4 4 4 4 4 4 4 4 4 4 4 4 5 5 5 5 5 5 5 5 5 5 5 5 5 5 5 
5 5 5 5 5 5 5 5 5 4 4 4 4 4 4 4 4 4 4 4 4 4 4 4 4 4 4 4 4 4 4 4 4 4 4 4 4 4 4 
4 4 4 4 4 4 4 4 4 4 4 4 4 4 4 4 4 4 4 4 4 4 4 4 4 4 4 4 4 4 4 4 4 4 4 4 4 4 4 
4 4 4 4 4 4 4 4 4 4 4 4 4 4 4 4 4 4 4 4 4 4 4 4 4 4 4 4 4 4 4 4 4 4 4 4 4 4 4 
4 4 4 4 4 4 4 4 4 4 4 4 4 4 4 4 4 4 4 4 4 4 4 4 4 4 4 4 4 4 4 4 4 4 4 4 4 4 4 
4 4 4 4 4 4 4 4 4 4 4 4 4 4 4 4 4 4 4 4 4 5 5 5 5 5 5 5 5 5 5 5 5 5 5 5 5 5 5 
5 5 5 5 5 5 15 15 15 15 15 15 15 15 15 15 15 15 15 15 15 15 15 15 15 15 15 
15 15 15 4 4 4 4 4 4 4 4 4 4 4 4 4 4 4 4 4 4 4 4 4 4 4 4 4 4 4 4 4 4 4 4 4 
4 4 4 4 4 4 4 4 4 4 4 4 4 4 4 4 4 4 4 4 4 4 4 4 4 4 4 4 4 4 4 4 4 4 4 4 4 4 4 
4 4 4 4 4 4 4 4 4 4 4 4 4 4 4 4 4 4 4 4 4 4 4 4 4 4 4 4 4 4 4 4 4 4 4 4 4 4 4 
4 4 4 4 4 4 4 4 4 1 5 6 0 6 6 0 7 6 0 7 6 0 7 6 0 7 4 1 6 2 5 4 0 12 2 0 
16 1 0 19 0 0 20 0 0 19 0 0 19 0 0 16 1 0 13 2 0 4 0 0 1 1 1 1 1 1 1 1 1 1 1 1 
1 1 1 1 1 1 1 1 1 4 4 4 4 4 4 4 4 4 4 4 4 4 4 4 4 4 4 4 4 4 4 4 4 3 4 6 3 4 6 
3 4 8 3 4 9 3 4 9 3 3 11 3 3 11 4 3 9 4 3 8 4 3 8 4 4 6 4 4 4 4 4 4 4 4 4 
4 4 4 4 4 4 4 4 4 4 4 4 4 4 4 4 4 4 4 4 4 4 4 4 4 4 4 4 4 4 4 4 4 4 4 4 4 4 4 
4 4 4 4 4 4 4 4 4 4 4 4 4 4 4 0 8 8 0 9 8 0 12 9 0 13 9 0 14 8 0 12 6 0 8 0 
8 4 0 26 0 0 32 0 0 49 0 0 45 0 0 43 0 0 49 0 0 35 0 0 38 7 0 12 1 0 48 48 50 
62 62 64 60 60 62 62 62 64 64 64 66 80 80 82 58 58 60 20 20 22 0 0 2 0 0 2 
6 6 8 1 1 3 17 17 19 0 0 2 14 15 17 0 3 6 0 4 8 1 3 15 2 4 19 3 4 24 3 4 25 
2 3 24 4 3 21 3 2 16 3 3 13 4 3 9 4 4 6 5 3 4 5 3 4 5 3 6 5 3 6 4 4 4 4 4 4 
4 4 4 4 4 4 4 4 4 4 4 4 4 4 4 4 4 4 4 4 4 4 4 4 4 4 4 4 4 4 4 4 4 4 4 4 4 4 4 
4 4 4 4 3 8 0 5 8 0 9 9 0 10 11 0 12 9 0 9 6 4 5 0 19 0 0 35 0 0 91 22 7 
145 59 42 177 84 66 183 92 71 181 96 75 183 108 85 165 114 97 139 121 117 
136 136 138 144 144 146 149 149 151 145 145 147 133 133 135 133 133 135 
132 132 134 119 119 121 86 86 88 63 63 65 3 3 5 0 0 2 11 11 13 0 0 2 3 4 6 
0 2 1 0 3 3 0 3 7 0 3 12 0 2 17 1 2 20 1 2 20 1 3 18 3 3 13 3 4 9 4 4 6 4 4 2 
5 4 0 5 4 0 5 4 0 5 4 0 4 4 4 4 4 4 4 4 4 4 4 4 4 4 4 4 4 4 4 4 4 4 4 4 4 4 4 
4 4 4 4 4 4 4 4 4 4 4 4 4 4 4 4 4 4 4 4 4 25 0 6 21 0 8 15 0 9 11 0 11 8 1 9 
12 0 6 24 0 0 38 0 0 116 42 41 185 91 89 197 88 83 197 82 75 176 63 55 
166 59 49 203 106 97 181 112 105 155 131 131 133 133 135 138 138 140 
141 141 143 140 140 142 149 149 151 143 143 145 153 153 155 146 146 148 
156 156 158 135 135 137 31 31 33 1 1 3 2 2 4 12 12 14 8 8 6 2 5 0 0 6 0 0 5 0 
0 5 0 2 5 0 2 5 0 3 5 0 4 6 1 4 5 0 4 5 0 4 5 0 4 6 0 4 6 0 4 6 0 4 7 0 4 6 0 
4 5 0 4 4 4 4 4 4 4 4 4 4 4 4 4 4 4 4 4 4 4 4 4 4 4 4 4 4 4 4 4 4 4 4 4 4 4 4 
4 4 4 4 4 4 4 4 4 31 0 6 28 0 6 21 0 9 17 0 11 15 0 9 19 0 8 29 0 0 42 0 0 
100 24 28 164 70 71 196 88 86 207 95 93 194 85 82 189 85 82 213 120 115 
199 131 130 161 139 141 150 150 152 148 148 150 134 134 136 123 123 125 
151 151 153 134 134 136 133 133 135 128 128 130 148 148 150 107 107 109 
36 36 38 5 5 7 1 1 3 6 6 8 8 8 6 6 7 0 5 7 0 4 7 0 3 6 0 4 7 0 3 7 0 6 8 0 
6 8 0 4 6 0 4 5 0 4 5 0 4 5 0 4 5 0 4 6 0 4 6 0 4 6 0 4 5 0 4 4 4 4 4 4 4 4 4 
4 4 4 4 4 4 4 4 4 4 4 4 4 4 4 4 4 4 4 4 4 4 4 4 4 4 4 4 4 4 4 4 4 4 4 4 22 0 4 
19 0 4 14 0 8 10 0 9 8 0 11 11 0 8 18 0 4 29 0 0 38 0 0 65 0 0 122 43 39 
144 61 55 150 69 65 153 78 73 141 73 70 143 95 93 116 100 101 118 118 120 
127 127 129 153 153 155 149 149 151 170 170 172 150 150 152 151 151 153 
161 161 163 130 130 132 12 12 14 8 8 10 0 0 2 9 9 11 0 0 2 0 0 2 6 4 7 5 3 4 
5 4 0 4 4 0 4 5 0 3 6 0 5 5 0 4 5 0 4 4 4 4 3 8 4 2 13 4 2 13 3 3 11 3 4 9 
3 4 6 3 5 4 4 4 4 4 4 4 4 4 4 4 4 4 4 4 4 4 4 4 4 4 4 4 4 4 4 4 4 4 4 4 4 4 4 
4 4 4 4 4 4 4 4 4 4 4 4 4 4 4 11 1 2 8 2 2 3 4 8 0 6 9 0 6 11 0 6 9 5 3 6 
14 0 0 35 7 3 28 0 0 46 0 0 36 0 0 35 0 0 36 0 0 25 0 0 24 0 0 9 0 1 14 14 16 
36 36 38 152 152 154 177 177 179 175 175 177 166 166 168 185 185 187 
184 184 186 140 140 142 0 0 2 15 15 17 10 10 12 12 12 14 0 0 2 13 11 16 
5 0 11 5 0 11 6 1 5 6 3 0 4 4 0 3 4 0 1 1 0 1 0 0 4 3 9 4 2 16 4 1 22 4 0 23 
3 1 22 3 2 18 3 3 15 3 3 11 4 4 6 4 4 4 4 4 4 4 4 4 4 4 4 4 4 4 4 4 4 4 4 4 
4 4 4 4 4 4 4 4 4 4 4 4 4 4 4 4 4 4 4 4 4 4 4 4 0 9 0 0 10 0 0 12 6 0 13 8 
0 13 9 0 13 9 0 12 6 0 9 2 4 6 0 12 6 0 25 13 0 25 12 0 23 11 0 21 15 3 
9 9 0 8 9 3 0 0 0 5 5 7 4 4 6 161 161 163 197 197 199 178 178 180 177 177 179 
188 188 190 176 176 178 157 157 159 5 5 7 22 22 24 19 19 21 5 5 7 3 3 5 19 16 23 
5 0 16 8 0 18 9 3 13 11 7 8 10 7 0 8 5 0 3 2 0 1 0 0 4 2 13 4 1 20 3 1 25 
3 0 27 3 1 25 3 1 23 1 3 18 3 3 13 4 3 8 4 4 4 4 4 4 4 4 4 4 4 4 4 4 4 4 4 4 
4 4 4 4 4 4 4 4 4 4 4 4 4 4 4 4 4 4 4 4 4 4 4 4 4 4 4 0 10 0 0 11 0 0 12 4 
0 13 8 0 14 9 0 13 9 0 12 8 0 10 4 0 5 0 17 23 9 5 7 0 4 5 0 0 3 0 0 4 0 11 22 14 
0 4 0 10 14 15 24 24 26 0 0 2 144 144 146 184 184 186 175 175 177 184 184 186 
172 172 174 185 185 187 166 166 168 3 3 5 0 0 2 7 7 9 0 0 2 8 8 10 1 0 5 9 2 18 
12 5 21 15 9 19 15 13 14 17 14 9 11 11 3 7 6 1 3 3 1 4 3 8 3 3 13 3 2 18 
3 2 18 3 2 18 3 3 15 1 4 11 1 4 9 4 4 6 4 4 4 4 4 4 4 4 4 4 4 4 4 4 4 4 4 4 
4 4 4 4 4 4 4 4 4 4 4 4 4 4 4 4 4 4 4 4 4 4 4 4 4 4 4 4 5 0 3 6 0 0 6 4 0 6 8 
0 7 9 0 7 9 0 6 8 1 5 4 4 5 0 5 2 0 11 7 0 12 8 0 3 0 0 3 2 0 5 6 8 0 2 5 
8 9 11 12 12 14 14 14 16 115 115 117 195 195 197 178 178 180 179 179 181 
185 185 187 188 188 190 149 149 151 59 59 61 1 1 3 9 9 11 4 4 6 0 0 2 1 1 3 
3 1 6 10 8 11 2 0 1 1 2 0 1 0 0 6 7 0 29 31 20 14 17 6 9 12 3 4 7 0 0 2 0 
0 6 0 0 3 0 0 3 0 12 18 6 0 4 0 2 2 0 2 2 2 3 3 3 4 4 4 4 4 4 4 4 4 3 3 3 
3 3 3 4 4 4 4 4 4 4 4 4 4 4 4 4 4 4 4 4 4 4 4 4 4 4 4 10 3 0 10 2 0 8 2 4 
7 2 8 5 2 9 5 2 11 7 2 9 8 2 6 12 3 4 13 3 1 10 1 0 7 0 0 9 1 0 14 8 10 
14 7 14 6 3 10 17 15 20 8 8 10 0 0 2 96 96 98 186 186 188 184 184 186 
182 182 184 174 174 176 178 178 180 169 169 171 125 125 127 101 101 103 
120 120 122 119 119 121 107 107 109 122 121 126 101 102 107 100 100 108 
79 79 91 55 54 68 15 14 30 0 0 12 0 3 12 0 1 4 15 20 14 15 21 7 7 15 0 0 5 0 
18 26 3 2 10 0 0 5 0 0 3 0 2 3 0 3 3 3 3 3 3 4 4 4 4 4 4 4 4 4 3 3 3 3 3 3 
4 4 4 4 4 4 4 4 4 4 4 4 4 4 4 4 4 4 4 4 4 4 4 4 14 1 0 14 0 0 12 0 2 12 0 6 
12 0 9 12 0 11 12 0 9 12 0 6 13 1 3 17 6 4 9 0 0 8 0 0 14 2 4 14 1 8 8 0 5 
9 0 10 3 0 4 25 25 27 38 38 40 105 105 107 138 138 140 107 107 109 107 107 109 
105 105 107 99 99 101 114 114 116 107 107 109 104 104 106 120 120 122 
115 115 117 106 106 108 119 119 127 105 108 127 103 106 137 106 107 151 
128 128 180 119 118 178 88 87 145 66 64 114 26 26 62 0 0 14 0 1 0 32 39 23 
26 34 11 13 21 0 0 4 0 5 11 0 9 14 8 4 4 2 4 4 4 4 4 4 4 4 4 4 4 4 4 4 4 3 3 3 
3 3 3 4 4 4 4 4 4 4 4 4 4 4 4 4 4 4 4 4 4 4 4 4 4 4 4 10 3 0 10 3 0 11 1 2 
11 0 6 12 0 9 12 0 11 12 0 9 11 0 6 9 0 1 12 4 1 9 2 0 11 3 0 11 2 3 7 0 2 
8 0 7 25 15 26 58 53 59 103 103 105 122 122 124 146 146 148 113 113 115 
51 51 53 60 60 62 67 67 69 56 56 58 71 71 73 69 69 71 64 64 66 67 67 69 
60 60 62 54 54 56 63 65 78 66 70 107 45 50 108 36 37 117 73 69 166 98 91 203 
107 100 212 121 115 215 106 102 179 104 105 149 5 8 25 0 3 0 7 14 0 0 3 0 
22 27 20 24 28 31 0 0 5 5 5 7 5 5 5 4 4 4 4 4 4 3 3 3 3 3 3 4 4 4 4 4 4 4 4 4 
4 4 4 4 4 4 4 4 4 4 4 4 4 4 4 4 4 4 4 4 4 0 8 0 0 8 0 1 6 2 4 4 6 5 2 9 5 2 11 
5 2 9 4 4 6 3 5 2 0 2 0 0 7 0 8 14 4 1 3 0 0 0 0 24 21 28 80 77 84 142 140 145 
155 155 157 141 141 143 146 146 148 110 110 112 61 61 63 75 75 77 71 71 73 
72 72 74 76 76 78 72 72 74 68 68 70 68 68 70 66 66 68 65 65 67 68 70 91 
60 66 126 39 44 138 16 16 140 21 15 165 15 6 177 24 11 186 68 56 214 86 77 204 
106 103 184 111 113 154 122 126 137 126 132 128 22 26 25 0 0 7 0 0 21 17 15 39 
7 6 14 6 6 6 5 5 5 3 3 3 3 3 3 3 3 3 4 4 4 4 4 4 4 4 4 4 4 4 4 4 4 4 4 4 4 4 4 
4 4 4 4 4 4 4 4 4 0 11 0 0 10 0 0 8 2 0 6 6 3 4 9 3 4 9 3 4 9 1 5 6 2 12 4 
0 5 0 0 8 0 3 15 3 0 3 0 21 23 22 89 88 94 145 142 149 148 147 152 145 145 147 
127 127 129 139 139 141 107 107 109 63 63 65 77 77 79 65 65 67 73 73 75 
70 70 72 70 70 72 72 72 74 74 74 76 76 76 78 76 76 78 70 72 97 56 65 134 
46 54 165 36 36 186 42 37 218 30 17 228 17 2 217 30 14 209 18 7 163 71 66 166 
157 159 210 159 165 177 208 215 208 197 202 198 128 131 140 17 14 43 0 0 25 
9 7 18 7 7 7 5 5 5 3 3 3 3 3 3 3 3 3 4 4 4 5 5 5 4 4 4 4 4 4 4 4 4 4 4 4 4 4 4 
4 4 4 4 4 4 4 4 4 0 11 0 0 10 0 0 7 2 1 5 6 4 3 9 4 3 9 4 3 9 3 4 6 5 12 5 
0 4 0 1 11 0 2 12 1 0 4 0 64 64 62 144 137 144 157 150 158 137 135 140 
139 139 141 138 138 140 158 158 160 113 113 115 58 58 60 75 75 77 68 68 70 
71 71 73 65 65 67 68 68 70 72 72 74 70 70 72 72 72 74 73 73 75 59 64 86 
54 65 131 38 50 160 22 25 182 31 28 223 38 27 254 41 27 255 48 34 243 
19 11 176 84 82 183 139 143 188 120 128 130 173 182 161 252 255 243 
242 244 241 154 151 172 10 6 31 10 9 17 8 8 8 6 6 6 3 3 3 2 2 2 3 3 3 4 4 4 
5 5 5 4 4 4 4 4 4 4 4 4 4 4 4 4 4 4 4 4 4 4 4 4 4 4 4 0 10 0 0 9 0 1 6 0 4 4 4 
5 3 6 7 2 8 5 3 6 3 5 4 1 8 1 0 4 0 7 19 7 2 12 3 2 7 1 92 91 89 161 154 161 
127 120 127 149 147 150 138 138 140 129 129 131 150 150 152 107 107 109 
55 55 57 78 78 80 74 74 76 75 75 77 67 67 69 71 71 73 73 73 75 67 67 69 
70 70 72 75 75 77 62 66 91 48 60 132 50 62 180 45 48 215 47 42 250 41 28 255 
43 28 255 57 41 255 35 26 197 93 90 193 117 122 164 138 147 142 162 172 145 
215 220 197 227 230 221 236 233 250 11 8 29 11 10 18 9 9 9 6 6 6 3 3 3 2 2 2 
3 3 3 4 4 4 6 6 6 4 4 4 4 4 4 4 4 4 4 4 4 4 4 4 4 4 4 4 4 4 4 4 4 3 7 0 4 6 0 
5 5 0 8 3 0 10 2 0 8 3 0 7 3 0 3 5 0 3 10 3 0 4 0 3 16 7 3 14 6 2 8 4 77 77 77 
151 146 150 147 141 145 152 150 153 139 139 141 140 140 142 143 143 145 
105 105 107 65 65 67 66 66 68 76 76 78 71 71 73 65 65 67 80 80 82 69 69 71 
74 74 76 79 79 81 56 56 58 66 70 99 52 60 145 43 51 186 37 36 218 32 25 243 
39 25 255 44 28 255 38 22 245 26 13 189 78 72 178 138 141 186 131 137 133 
162 171 144 229 234 211 252 253 245 176 172 189 2 0 19 11 10 18 9 9 9 6 6 6 
3 3 3 2 2 2 3 3 3 4 4 4 6 6 6 4 4 4 4 4 4 4 4 4 4 4 4 4 4 4 4 4 4 4 4 4 4 4 4 
1 7 0 1 7 0 4 5 0 5 5 0 5 4 0 5 4 0 4 5 0 1 6 0 0 10 4 0 5 0 5 17 13 4 15 11 
0 2 2 39 39 41 118 111 118 153 146 153 134 132 135 134 134 136 140 140 142 
144 144 146 107 107 109 64 64 66 64 64 66 69 69 71 72 72 74 60 60 62 73 73 75 
65 65 67 69 69 71 80 80 82 68 68 70 72 76 103 53 60 140 41 49 176 31 29 200 
24 17 221 31 15 244 39 22 251 35 20 227 27 15 177 99 95 190 131 133 172 
142 149 142 207 216 189 237 241 218 184 185 177 108 104 119 2 0 19 10 9 15 
8 8 8 6 6 6 3 3 3 2 2 2 3 3 3 4 4 4 5 5 5 4 4 4 4 4 4 4 4 4 4 4 4 4 4 4 4 4 4 
4 4 4 4 4 4 0 11 0 0 11 0 0 9 2 0 9 2 0 8 2 0 8 2 0 8 4 0 8 4 0 12 9 0 6 3 
0 10 10 2 10 12 0 0 4 9 4 10 66 54 64 120 110 119 159 154 160 150 150 152 
132 132 134 136 136 138 117 117 119 82 82 84 73 73 75 60 60 62 87 87 89 
71 71 73 80 80 82 74 74 76 68 68 70 79 79 81 74 74 76 70 72 93 61 70 127 
46 55 150 32 32 166 20 15 179 21 8 199 26 11 202 22 9 177 15 6 135 92 90 165 
133 137 164 163 171 158 188 197 168 119 122 101 8 9 1 0 0 11 13 10 27 9 8 14 
7 7 7 5 5 5 3 3 3 3 3 3 3 3 3 4 4 4 5 5 5 4 4 4 4 4 4 4 4 4 4 4 4 4 4 4 4 4 4 
4 4 4 4 4 4 0 10 4 0 10 4 0 9 6 0 8 6 0 8 6 0 7 6 0 7 8 0 8 8 1 11 12 0 7 9 
0 1 5 0 2 7 12 9 16 6 0 7 19 5 18 53 41 51 92 87 93 141 141 143 153 153 155 
151 151 153 101 101 103 44 44 46 61 61 63 79 79 81 64 64 66 58 58 60 69 69 71 
67 67 69 56 56 58 61 61 63 63 63 65 51 53 66 46 54 91 35 43 106 27 30 123 
34 30 150 55 46 189 84 72 216 104 95 220 114 109 203 119 119 169 72 76 88 
6 12 0 4 10 0 11 16 0 4 5 0 16 15 23 10 8 22 7 6 11 6 6 6 5 5 5 3 3 3 3 3 3 
3 3 3 4 4 4 4 4 4 4 4 4 4 4 4 4 4 4 4 4 4 4 4 4 4 4 4 4 4 4 4 4 4 4 3 9 4 3 9 
4 3 9 4 3 9 4 3 9 4 3 9 4 3 9 3 4 9 1 0 6 11 10 18 1 0 7 3 0 7 22 12 23 
17 5 17 10 0 7 15 2 12 5 0 6 67 67 69 90 90 92 128 128 130 119 119 121 
67 67 69 76 76 78 80 80 82 67 67 69 76 76 78 83 83 85 86 86 88 83 83 85 
86 86 88 93 93 95 84 84 92 77 83 99 82 88 120 97 100 153 115 114 184 
122 118 203 115 109 195 98 94 170 87 84 137 0 0 23 9 13 14 6 13 0 13 18 0 
18 23 3 19 22 13 16 15 21 0 0 9 5 4 9 5 5 5 4 4 4 4 4 4 3 3 3 3 3 3 4 4 4 
4 4 4 4 4 4 4 4 4 4 4 4 4 4 4 4 4 4 4 4 4 4 4 4 4 4 4 14 0 11 14 0 11 12 0 11 
11 0 11 10 0 11 8 1 9 7 2 9 5 2 9 1 0 5 18 15 22 13 8 15 3 0 4 10 3 10 12 5 12 
6 0 6 15 8 15 3 1 4 15 15 17 0 0 2 84 84 86 170 170 172 161 161 163 
155 155 157 125 125 127 134 134 136 147 147 149 120 120 122 109 109 111 
117 117 119 115 115 117 119 119 121 114 115 119 113 116 121 108 112 123 
106 108 131 99 100 131 80 78 118 43 41 81 6 5 39 0 0 19 13 16 21 15 18 11 
11 15 0 6 11 0 4 8 0 4 7 0 4 4 6 0 0 5 4 4 6 4 4 4 4 4 4 4 4 4 4 4 4 4 4 4 
3 3 3 3 3 3 4 4 4 4 4 4 4 4 4 4 4 4 4 4 4 4 4 4 4 4 4 4 4 4 24 0 9 22 0 9 
18 0 9 15 0 9 11 0 9 8 1 8 5 3 8 4 4 6 0 0 2 11 13 12 8 10 9 0 2 0 0 3 0 0 7 2 
0 9 1 6 15 10 4 6 5 23 23 25 0 0 2 96 96 98 185 185 187 176 176 178 
198 198 200 197 197 199 180 180 182 179 179 181 96 96 98 55 55 57 71 71 73 
64 64 66 60 60 62 60 60 62 58 58 60 36 36 38 10 9 14 0 0 5 0 0 7 0 0 5 12 12 14 
25 25 23 1 2 0 0 2 0 7 9 0 10 12 0 6 9 0 1 3 0 0 1 0 6 7 9 2 2 2 3 3 3 3 3 3 
4 4 4 4 4 4 4 4 4 3 3 3 3 3 3 4 4 4 4 4 4 4 4 4 4 4 4 4 4 4 4 4 4 4 4 4 4 4 4 
21 0 8 18 0 8 14 0 8 10 1 6 5 3 6 1 5 4 1 5 4 0 6 2 3 8 2 0 4 0 0 2 0 0 4 0 
0 11 0 0 10 0 0 7 0 0 6 0 0 4 0 24 24 26 4 4 6 110 110 112 197 197 199 
169 169 171 176 176 178 172 172 174 189 189 191 173 173 175 48 48 50 0 0 2 
9 9 11 1 1 3 0 0 2 0 0 2 1 0 4 3 0 2 7 3 2 21 18 13 24 21 12 14 15 1 5 6 0 
3 4 0 10 10 0 2 4 0 4 5 0 0 1 0 0 1 0 6 8 5 1 3 0 5 7 6 2 2 2 2 2 2 3 3 3 
4 4 4 4 4 4 4 4 4 3 3 3 3 3 3 4 4 4 4 4 4 4 4 4 4 4 4 4 4 4 4 4 4 4 4 4 4 4 4 
7 3 4 4 4 4 0 6 2 0 9 2 0 11 0 0 13 0 0 12 0 0 11 0 0 5 0 14 21 5 10 11 0 
11 12 0 16 19 0 8 16 0 14 27 1 12 24 4 20 22 17 26 26 28 0 0 2 146 146 148 
184 184 186 172 172 174 180 180 182 173 173 175 178 178 180 175 175 177 
7 7 9 14 14 16 20 20 22 25 25 27 20 20 22 9 6 13 15 8 24 15 7 22 13 6 13 
11 6 2 8 4 0 5 4 0 3 2 0 1 2 0 5 5 0 5 4 0 4 4 4 4 4 6 4 4 6 4 4 4 3 5 2 3 5 2 
4 4 4 4 4 4 4 4 4 4 4 4 4 4 4 4 4 4 4 4 4 4 4 4 4 4 4 4 4 4 4 4 4 4 4 4 4 4 4 
4 4 4 4 4 4 4 4 4 0 6 2 0 7 2 0 10 0 0 13 0 0 15 0 0 14 0 0 12 0 0 10 0 20 17 0 
31 15 0 18 0 0 23 0 0 36 9 0 25 0 0 18 0 0 11 0 0 4 0 0 9 9 11 7 7 9 149 149 151 
186 186 188 185 185 187 189 189 191 190 190 192 192 192 194 154 154 156 
5 5 7 4 4 6 10 10 12 0 0 2 0 0 2 19 16 25 12 2 26 14 2 26 13 2 16 10 4 4 
9 5 0 8 5 0 6 5 0 6 4 0 5 5 0 5 4 2 4 3 8 4 3 9 4 3 9 4 4 6 4 4 2 3 5 0 4 4 4 
4 4 4 4 4 4 4 4 4 4 4 4 4 4 4 4 4 4 4 4 4 4 4 4 4 4 4 4 4 4 4 4 4 4 4 4 4 4 4 
4 4 4 4 4 4 1 6 2 0 7 2 0 10 0 0 11 0 0 13 0 0 11 0 4 7 0 15 1 0 27 0 0 51 0 0 
66 0 0 102 21 17 130 47 39 125 43 32 125 47 35 108 51 42 88 68 67 87 87 89 
88 88 90 165 165 167 166 166 168 162 162 164 149 149 151 157 157 159 
177 177 179 125 125 127 15 15 17 0 0 2 12 12 14 0 0 2 0 0 2 9 6 17 7 0 25 
8 0 27 8 0 18 9 2 10 9 4 1 9 6 0 9 6 0 9 6 0 5 4 2 5 3 6 5 2 9 5 2 11 5 2 9 
4 3 8 4 4 2 4 5 0 4 4 4 4 4 4 4 4 4 4 4 4 4 4 4 4 4 4 4 4 4 4 4 4 4 4 4 4 4 4 
4 4 4 4 4 4 4 4 4 4 4 4 4 4 4 4 4 4 7 3 4 4 4 4 0 6 2 0 9 0 0 9 0 3 7 0 14 2 0 
29 0 0 79 18 15 146 62 62 181 76 80 200 84 87 200 81 83 192 74 74 209 96 92 
200 117 113 163 135 134 140 140 142 134 134 136 151 151 153 133 133 135 
141 141 143 128 128 130 145 145 147 142 142 144 135 135 137 84 84 86 4 4 6 
14 14 16 17 17 19 7 7 9 1 0 7 6 0 22 6 0 24 6 0 17 7 1 11 8 4 5 9 5 2 9 6 1 
9 5 2 5 3 4 5 3 8 5 2 9 5 2 11 5 2 9 5 3 6 4 4 2 4 4 2 4 4 4 4 4 4 4 4 4 4 4 4 
4 4 4 4 4 4 4 4 4 4 4 4 4 4 4 4 4 4 4 4 4 4 4 4 4 4 4 4 4 4 4 4 4 4 4 4 18 0 8 
15 0 8 10 1 6 5 3 4 5 4 0 10 3 0 22 0 0 38 0 0 110 34 38 191 90 98 219 97 108 
207 75 86 188 54 61 185 54 59 213 87 88 204 113 112 165 135 135 139 139 141 
140 140 142 137 137 139 126 126 128 146 146 148 135 135 137 149 149 151 
137 137 139 159 159 161 145 145 147 30 30 32 6 6 8 4 4 6 8 8 10 3 2 8 5 1 15 
5 1 15 5 2 13 5 2 9 5 3 6 5 3 4 5 4 2 5 4 2 5 3 6 5 3 6 5 3 8 5 3 8 5 3 6 
5 3 4 5 4 2 5 4 2 4 4 4 4 4 4 4 4 4 4 4 4 4 4 4 4 4 4 4 4 4 4 4 4 4 4 4 4 4 4 
4 4 4 4 4 4 4 4 4 4 4 4 4 4 4 4 4 4 22 0 13 18 0 11 11 0 11 5 3 8 3 5 4 7 3 0 
18 0 0 32 0 0 71 5 7 147 58 64 179 72 80 188 73 80 194 79 82 201 92 89 
216 115 107 195 122 115 151 127 125 140 140 142 151 151 153 150 150 152 
147 147 149 155 155 157 139 139 141 136 136 138 137 137 139 120 120 122 
91 91 93 14 14 16 4 4 6 0 0 2 5 5 7 5 5 7 5 5 5 4 6 5 5 5 5 4 4 4 3 3 5 3 3 3 
2 2 2 3 1 2 5 3 4 5 3 4 5 3 4 5 4 2 5 4 2 5 4 2 5 4 2 5 3 4 4 4 4 4 4 4 4 4 4 
4 4 4 4 4 4 4 4 4 4 4 4 4 4 4 4 4 4 4 4 4 4 4 4 4 4 4 4 4 4 4 4 4 4 4 4 4 4 4 
18 0 18 14 0 16 4 2 15 0 6 13 0 9 9 0 10 4 0 7 0 11 2 0 22 0 0 48 0 0 67 4 0 
94 27 19 111 49 36 99 46 28 91 49 25 71 44 23 75 66 61 83 83 85 93 93 95 
100 100 102 105 105 107 103 103 105 101 101 103 91 91 93 78 78 80 43 43 45 
7 7 9 0 0 2 10 10 12 3 3 5 7 7 9 1 1 0 3 7 0 1 8 0 3 7 0 2 5 0 2 4 1 2 4 3 
2 4 3 2 2 0 4 4 2 4 5 0 5 4 0 5 4 0 7 4 0 7 3 0 7 3 4 5 3 4 4 4 4 4 4 4 4 4 4 
4 4 4 4 4 4 4 4 4 4 4 4 4 4 4 4 4 4 4 4 4 4 4 4 4 4 4 4 4 4 4 4 4 4 4 4 4 4 4 
14 0 16 10 0 15 1 3 15 0 7 11 0 10 9 0 11 6 0 9 2 1 6 0 23 12 6 25 2 0 22 0 0 
27 0 0 35 7 0 15 0 0 10 0 0 9 7 0 1 0 0 7 7 9 1 1 3 1 1 3 1 1 3 0 0 2 7 7 9 
0 0 2 0 0 2 3 3 5 0 0 2 11 11 13 10 10 12 0 0 2 8 8 10 7 8 3 1 5 0 0 7 0 2 6 0 
2 5 0 2 4 0 3 5 2 3 5 4 3 5 2 4 5 0 4 5 0 5 4 0 5 4 0 5 4 0 5 4 0 7 3 4 5 3 6 
4 4 4 4 4 4 4 4 4 4 4 4 4 4 4 4 4 4 4 4 4 4 4 4 4 4 4 4 4 4 4 4 4 4 4 4 4 4 4 
4 4 4 4 4 4 4 4 4 7 2 8 5 3 8 3 4 8 1 5 6 0 6 6 0 6 4 1 5 4 3 5 2 12 8 5 
15 7 5 16 6 4 18 7 3 18 9 4 17 10 4 15 12 3 13 13 5 12 12 10 12 12 12 12 12 12 
12 12 12 12 12 12 12 12 12 12 12 12 12 12 12 6 6 6 6 6 6 5 5 5 5 5 5 4 4 4 
3 3 3 3 3 3 3 3 1 4 5 0 3 6 0 4 5 0 4 4 2 4 4 2 4 4 4 4 4 4 4 4 4 4 4 2 4 4 2 
4 4 2 4 4 2 4 4 2 4 4 2 5 3 4 4 4 4 4 4 4 4 4 4 4 4 4 4 4 4 4 4 4 4 4 4 4 4 4 
4 4 4 4 4 4 4 4 4 4 4 4 4 4 4 4 4 4 4 4 4 4 4 4 4 4 4 4 4 4 4 4 4 4 4 4 4 4 4 
4 4 4 4 4 4 4 4 4 4 4 4 4 4 4 4 4 4 5 5 5 5 5 5 6 6 6 6 6 6 7 7 7 7 7 7 6 6 6 
6 6 6 6 6 6 6 6 6 6 6 6 6 6 6 6 6 6 6 6 6 6 6 6 5 5 5 5 5 5 5 5 5 4 4 4 3 3 3 
3 3 3 3 3 3 4 4 4 4 4 4 4 4 4 4 4 4 4 4 4 4 4 4 4 4 4 4 4 4 4 4 4 4 4 4 4 4 4 
4 4 4 4 4 4 4 4 4 4 4 4 4 4 4 4 4 4 4 4 4 4 4 4 4 4 4 4 4 4 4 4 4 4 4 4 4 4 4 
4 4 4 4 4 4 4 4 4 4 4 4 4 4 4 4 4 4 4 4 4 4 4 4 4 4 4 4 4 4 4 4 4 4 4 4 4 4 4 
4 4 4 4 4 4 4 4 4 2 2 2 2 2 2 2 2 2 3 3 3 3 3 3 3 3 3 4 4 4 4 4 4 4 4 4 4 4 4 
4 4 4 4 4 4 4 4 4 4 4 4 4 4 4 4 4 4 5 5 5 5 5 5 5 5 5 4 4 4 4 4 4 4 4 4 3 3 3 
3 3 3 4 4 4 4 4 4 4 4 4 4 4 4 4 4 4 4 4 4 4 4 4 4 4 4 4 4 4 4 4 4 4 4 4 4 4 4 
4 4 4 4 4 4 4 4 4 4 4 4 4 4 4 4 4 4 4 4 4 4 4 4 4 4 4 4 4 4 4 4 4 4 4 4 4 4 4 
4 4 4 4 4 4 4 4 4 4 4 4 4 4 4 4 4 4 4 4 4 4 4 4 4 4 4 4 4 4 4 4 4 4 4 4 4 4 4 
4 4 4 4 4 4 4 4 4 4 4 4 5 5 5 5 5 5 5 5 5 5 5 5 5 5 5 5 5 5 5 5 5 5 5 5 5 5 5 
5 5 5 5 5 5 5 5 5 5 5 5 5 5 5 5 5 5 5 5 5 4 4 4 4 4 4 4 4 4 4 4 4 4 4 4 4 4 4 
4 4 4 4 4 4 4 4 4 4 4 4 4 4 4 4 4 4 4 4 4 4 4 4 4 4 4 4 4 4 4 4 4 4 4 4 4 4 4 
4 4 4 4 4 4 4 4 4 4 4 4 4 4 4 4 4 4 4 4 4 4 4 4 4 4 4 4 4 4 4 4 4 4 4 4 4 4 4 
4 4 4 4 4 4 4 4 4 4 4 4 4 4 4 4 4 4 4 4 4 4 4 4 4 4 4 4 4 4 4 4 4 4 4 4 4 4 4 
4 4 4 6 6 6 6 6 6 6 6 6 6 6 6 6 6 6 6 6 6 6 6 6 6 6 6 6 6 6 6 6 6 6 6 6 6 6 6 
6 6 6 6 6 6 6 6 6 6 6 6 4 4 4 4 4 4 4 4 4 4 4 4 4 4 4 4 4 4 5 5 5 5 5 5 4 4 4 
4 4 4 4 4 4 4 4 4 4 4 4 4 4 4 4 4 4 4 4 4 4 4 4 4 4 4 4 4 4 4 4 4 4 4 4 4 4 4 
4 4 4 4 4 4 4 4 4 4 4 4 4 4 4 4 4 4 4 4 4 4 4 4 4 4 4 4 4 4 4 4 4 4 4 4 4 4 4 
4 4 4 4 4 4 4 4 4 4 4 4 4 4 4 4 4 4 4 4 4 4 4 4 4 4 4 4 4 4 4 4 4 4 4 4 4 4 4 
5 5 5 5 5 5 5 5 5 4 4 4 4 4 4 4 4 4 3 3 3 3 3 3 4 4 4 4 4 4 4 4 4 4 4 4 4 4 4 
4 4 4 4 4 4 4 4 4 3 3 3 3 3 3 4 4 4 4 4 4 4 4 4 5 5 5 5 5 5 5 5 5 4 4 4 4 4 4 
4 4 4 4 4 4 4 4 4 4 4 4 4 4 4 4 4 4 4 4 4 4 4 4 4 4 4 4 4 4 4 4 4 4 4 4 4 4 4 
4 4 4 4 4 4 4 4 4 4 4 4 4 4 4 4 4 4 4 4 4 4 4 4 4 4 4 4 4 4 4 4 4 4 4 4 4 4 4 
4 4 4 4 4 4 4 4 4 4 4 4 4 4 4 4 4 4 4 4 4 4 4 4 4 4 4 4 4 4 4 4 4 4 4 4 5 5 5 
5 5 5 5 5 5 4 4 4 4 4 4 3 3 3 3 3 3 2 2 2 3 3 3 3 3 3 3 3 3 3 3 3 3 3 3 3 3 3 
3 3 3 3 3 3 3 3 3 3 3 3 3 3 3 4 4 4 5 5 5 5 5 5 5 5 5 6 6 6 4 4 4 4 4 4 4 4 4 
4 4 4 4 4 4 4 4 4 4 4 4 4 4 4 4 4 4 4 4 4 4 4 4 4 4 4 4 4 4 4 4 4 4 4 4 4 4 4 
4 4 4 4 4 4 4 4 4 4 4 4 4 4 4 4 4 4 4 4 4 4 4 4 4 4 4 4 4 4 4 4 4 4 4 4 4 4 4 
4 4 4 4 4 4 4 4 4 4 4 4 4 4 4 4 4 4 4 4 4 4 4 4 4 4 4 4 4 4 4 4 4 7 7 7 7 7 7 
6 6 6 6 6 6 5 5 5 5 5 5 4 4 4 4 4 4 4 4 4 4 4 4 4 4 4 4 4 4 4 4 4 4 4 4 4 4 4 
4 4 4 3 3 3 3 3 3 3 3 3 4 4 4 5 5 5 5 5 5 6 6 6 6 6 6 4 4 4 4 4 4 4 4 4 4 4 4 
4 4 4 4 4 4 4 4 4 4 4 4 4 4 4 4 4 4 4 4 4 4 4 4 4 4 4 4 4 4 4 4 4 4 4 4 4 4 4 
4 4 4 4 4 4 4 4 4 4 4 4 4 4 4 4 4 4 4 4 4 4 4 4 4 4 4 4 4 4 4 4 4 4 4 4 4 4 4 
4 4 4 4 4 4 4 4 4 4 4 4 4 4 4 4 4 4 4 4 4 4 4 4 4 4 4 4 4 4 4 4 4 4 4 4 4 4 4 
4 4 4 4 4 4 4 4 4 4 4 4 4 4 4 4 4 4 4 4 4 4 4 4 4 4 4 4 4 4 4 4 4 4 4 4 4 4 4 
4 4 4 4 4 4 4 4 4 4 4 4 4 4 4 4 4 4 4 4 4 4 4 4 4 4 4 4 4 4 4 4 4 4 4 4 4 4 4 
4 4 4 4 4 4 4 4 4 4 4 4 4 4 4 4 4 4 4 4 4 4 4 4 4 4 4 4 4 4 4 4 4 4 4 4 4 4 4 
4 4 4 4 4 4 4 4 4 4 4 4 4 4 4 4 4 4 4 4 4 4 4 4 4 4 4 4 4 4 4 4 4 4 4 4 4 4 4 
4 4 4 4 4 4 4 4 4 4 4 4 4 4 4 4 4 4 4 4 4 4 4 4 4 4 4 4 4 4 4 4 4 4 4 4 4 4 4 
4 4 4 4 4 4 4 4 4 4 4 4 4 4 4 4 4 4 4 4 4 4 4 4 4 4 4 4 4 4 4 4 4 4 4 4 4 4 4 
4 4 4 4 4 4 4 4 4 4 4 4 4 4 4 4 4 4 4 4 4 4 4 4 4 4 4 4 4 4 4 4 4 4 4 4 4 4 4 
4 4 4 4 4 4 4 4 4 4 4 4 4 4 4 4 4 4 4 4 4 4 4 4 4 4 4 4 4 4 4 4 4 4 4 4 4 4 4 
4 4 4 4 4 4 4 4 4 4 4 4 4 4 4 4 4 4 4 4 4 4 4 4 4 4 4 4 4 4 4 4 4 4 4 4 4 4 4 
4 4 4 4 4 4 4 4 4 4 4 4 4 4 4 4 4 4 4 4 4 4 4 4 4 4 4 4 4 4 4 4 4 4 4 4 4 4 4 
4 4 4 4 4 4 4 4 4 4 4 4 4 4 4 4 4 4 4 4 4 4 4 4 4 4 4 4 4 4 4 4 4 4 4 4 4 4 4 
4 4 4 4 4 4 4 4 4 4 4 4 4 4 4 4 4 4 4 4 4 4 4 4 4 4 4 4 4 4 4 4 4 4 4 4 4 4 4 
4 4 4 4 4 4 4 4 4 4 4 4 4 4 4 4 4 4 4 4 4 4 4 4 4 4 4 4 4 4 4 4 4 4 4 4 4 4 4 
4 4 4 4 4 4 4 4 4 4 4 4 4 4 4 4 4 4 4 4 4 4 4 4 4 4 4 4 4 4 4 4 4 4 4 4 4 4 4 
4 4 4 4 4 4 4 4 4 4 4 4 4 4 4 4 4 4 4 4 4 4 4 4 4 4 4 4 4 4 4 4 4 4 4 4 4 4 4 
4 4 4 4 4 4 4 4 4 4 4 4 4 4 4 4 4 4 4 4 4 4 4 4 4 4 4 4 4 4 4 4 4 4 4 4 4 4 4 
4 4 4 4 4 4 4 4 4 4 4 4 4 4 4 4 4 4 4 4 4 4 4 4 4 4 4 4 4 4 4 4 4 4 4 4 4 4 4 
4 4 4 4 4 4 4 4 4 4 4 4 4 4 4 4 4 4 4 4 4 4 4 4 4 4 4 4 4 4 4 4 4 4 4 4 4 4 4 
4 4 4 4 4 4 4 4 4 4 4 4 4 4 4 4 4 4 4 4 4 4 4 4 4 4 4 4 4 4 4 4 4 4 4 4 4 4 4 
4 4 4 4 4 4 4 4 4 4 4 4 4 4 4 4 4 4 4 4 4 4 4 4 4 4 4 4 4 4 4 4 4 4 4 4 4 4 4 
4 4 4 4 4 4 4 4 4 4 4 4 4 4 4 4 4 4 4 4 4 4 4 4 4 4 4 4 4 4 4 4 4 4 4 4 4 4 4 
4 4 4 4 4 4 4 4 4 4 4 4 4 4 4 4 4 4 4 4 4 4 4 4 4 4 4 4 4 4 4 4 4 4 4 4 4 4 4 
4 4 4 4 4 4 4 4 4 4 4 4 4 4 4 4 4 4 4 4 4 4 4 4 4 4 4 4 4 4 4 4 4 4 4 4 4 4 4 
4 4 4 4 4 4 4 4 4 4 4 4 4 4 4 4 4 4 4 4 4 4 4 4 4 4 4 4 4 4 4 4 4 4 4 4 4 4 4 
4 4 4 4 4 4 4 4 4 4 4 4 4 4 4 4 4 4 4 4 4 4 4 4 4 4 4 4 4 4 4 4 4 4 4 4 4 4 4 
4 4 4 4 4 4 4 4 4 4 4 4 4 4 4 4 4 4 4 4 4 4 4 4 4 4 4 4 4 4 4 4 4 4 4 4 4 4 4 
4 4 4 4 4 4 4 4 4 4 4 4 4 4 4 4 4 4 4 4 4 4 4 4 4 4 4 4 4 4 4 4 4 4 4 4 4 4 4 
4 4 4 4 4 4 4 4 4 4 4 4 4 4 4 4 4 4 4 4 4 4 4 4 4 4 4 4 4 4 4 4 4 4 4 4 4 4 4 
4 4 4 4 4 4 4 4 4 4 4 4 4 4 4 4 4 4 4 4 4 4 4 4 4 4 4 4 4 4 4 4 4 4 4 4 4 4 4 
4 4 4 4 4 4 4 4 4 4 4 4 4 4 4 4 4 4 4 4 4 4 4 4 4 4 4 4 4 4 4 4 4 4 4 4 4 4 4 
4 4 4 4 4 4 4 4 4 4 4 4 4 4 4 4 4 4 4 4 4 4 4 4 4 4 4 4 4 4 4 4 4 4 4 4 4 4 4 
4 4 4 4 4 4 4 4 4 4 4 4 4 4 4 4 4 4 4 4 4 4 4 4 4 4 4 4 4 4 4 4 4 4 4 4 4 4 4 
4 4 4 4 4 4 4 4 4 4 4 4 4 4 4 4 4 4 4 4 4 4 4 4 4 4 4 4 4 4 4 4 4 4 4 4 4 4 4 
4 4 4 4 4 4 4 4 4 4 4 4 4 4 4 4 4 4 4 4 4 4 4 4 4 4 4 4 4 4 4 4 4 4 4 4 4 4 4 
4 4 4 4 4 4 4 4 4 4 4 4 4 4 4 4 4 4 4 4 4 4 4 4 4 4 4 4 4 4 4 4 4 4 4 4 4 4 4 
4 4 4 4 4 4 4 4 4 4 4 4 4 4 4 4 4 4 4 4 4 4 4 4 4 4 4 4 4 4 4 4 4 4 4 4 4 4 4 
4 4 4 4 4 4 4 4 4 4 4 4 4 4 4 4 4 4 4 4 4 4 4 4 4 4 4 4 4 4 4 4 4 4 4 4 4 4 4 
4 4 4 4 4 4 4 4 4 4 4 4 4 4 4 4 4 4 4 4 4 4 4 4 4 4 4 4 4 4 4 4 4 4 4 4 4 4 4 
4 4 4 4 4 4 4 4 4 4 4 4 4 4 4 4 4 4 4 4 4 
